<?xml version="1.0" encoding="UTF-8"?>
<svg version="1.1" xmlns="http://www.w3.org/2000/svg" width="24" height="24">
<path d="M0 0 C1.32 0 2.64 0 4 0 C4.66 1.65 5.32 3.3 6 5 C8.31 5.33 10.62 5.66 13 6 C12.25 10.75 12.25 10.75 10 13 C9.835 14.175625 9.67 15.35125 9.5 16.5625 C9.2525 18.2640625 9.2525 18.2640625 9 20 C8.34 20.33 7.68 20.66 7 21 C6.0925 20.67 5.185 20.34 4.25 20 C0.66953288 18.89831781 -1.40157998 19.14323333 -5 20 C-5.12117187 19.39671875 -5.24234375 18.7934375 -5.3671875 18.171875 C-5.53476563 17.37265625 -5.70234375 16.5734375 -5.875 15.75 C-6.03742187 14.96109375 -6.19984375 14.1721875 -6.3671875 13.359375 C-6.99150075 11.03168856 -7.84838542 9.10968048 -9 7 C-7.88625 6.5875 -6.7725 6.175 -5.625 5.75 C-3.00679305 4.64453484 -2.16506911 4.25119213 -0.5625 1.8125 C-0.376875 1.214375 -0.19125 0.61625 0 0 Z " fill="#9AA3AE" transform="translate(10,2)"/>
</svg>
