<?xml version="1.0" encoding="UTF-8"?>
<svg version="1.1" xmlns="http://www.w3.org/2000/svg" width="48" height="48">
<path d="M0 0 C1.98 0 3.96 0 6 0 C6.83848804 1.45537568 7.67063934 2.91440373 8.5 4.375 C9.19609375 5.59316406 9.19609375 5.59316406 9.90625 6.8359375 C11 9 11 9 11 11 C12.15628906 11.09087891 12.15628906 11.09087891 13.3359375 11.18359375 C14.33882812 11.26738281 15.34171875 11.35117188 16.375 11.4375 C17.87160156 11.55931641 17.87160156 11.55931641 19.3984375 11.68359375 C22 12 22 12 24 13 C24.4375 15.5625 24.4375 15.5625 24 19 C22.44140625 20.46484375 22.44140625 20.46484375 20.5 22 C17.62288492 24.5529331 17.04406524 25.66266022 16.53515625 29.55859375 C16.55985513 33.06230566 16.6950567 36.51009332 17 40 C14.60487297 40.85160072 13.45701943 41.19242923 11.0703125 40.1875 C10.42835937 39.795625 9.78640625 39.40375 9.125 39 C6.19591097 37.42112301 5.18902932 36.99272964 1.75 37.125 C-0.93492679 37.8887928 -0.93492679 37.8887928 -3 39.0625 C-5.71453756 40.33493948 -8.04316249 40.13440171 -11 40 C-12.12428605 36.62714185 -11.75429626 35.24458499 -11.125 31.8125 C-10.72618003 28.3019568 -10.56475295 26.66403076 -12.5234375 23.67578125 C-14.45428059 21.61362169 -14.45428059 21.61362169 -16.53125 19.8515625 C-18 18 -18 18 -17.71875 15.2734375 C-17.4815625 14.52320313 -17.244375 13.77296875 -17 13 C-10.29927007 11.02919708 -10.29927007 11.02919708 -7.4375 10.75 C-4.79920037 10.21324176 -4.79920037 10.21324176 -3.41796875 7.71484375 C-3.01191406 6.79832031 -2.60585938 5.88179687 -2.1875 4.9375 C-1.76855469 4.01839844 -1.34960938 3.09929688 -0.91796875 2.15234375 C-0.46357422 1.08693359 -0.46357422 1.08693359 0 0 Z " fill="#9BA3AE" transform="translate(21,4)"/>
</svg>
