<?xml version="1.0" encoding="UTF-8"?>
<svg version="1.1" xmlns="http://www.w3.org/2000/svg" width="60" height="60">
<path d="M0 0 C0 12.21 0 24.42 0 37 C-13 40 -13 40 -16 40 C-16 27.79 -16 15.58 -16 3 C-3 0 -3 0 0 0 Z " fill="#2362EA" transform="translate(38,10)"/>
<path d="M0 0 C1.58409994 0.11487748 3.16728963 0.24234508 4.75 0.375 C6.07257812 0.47941406 6.07257812 0.47941406 7.421875 0.5859375 C10 1 10 1 14 3 C14 15.21 14 27.42 14 40 C1 37 1 37 0 36 C-0.08855161 33.3337397 -0.11524673 30.69352886 -0.09765625 28.02734375 C-0.0962413 27.22970108 -0.09482635 26.43205841 -0.09336853 25.61024475 C-0.08775316 23.05262565 -0.07519812 20.49509282 -0.0625 17.9375 C-0.05748698 16.20768355 -0.05292373 14.47786574 -0.04882812 12.74804688 C-0.03777875 8.49866447 -0.02050386 4.24934688 0 0 Z " fill="#2362EB" transform="translate(4,10)"/>
<path d="M0 0 C12 3 12 3 14 4 C14 15.88 14 27.76 14 40 C5 39 5 39 0 37 C0 24.79 0 12.58 0 0 Z " fill="#2362EA" transform="translate(42,10)"/>
</svg>
