<?xml version="1.0" encoding="UTF-8"?>
<svg version="1.1" xmlns="http://www.w3.org/2000/svg" width="96" height="96">
<path d="M0 0 C2.19140625 0.03125 2.19140625 0.03125 4.3125 0.6875 C7.63785443 4.39806098 9.76322493 8.9312045 11.2421875 13.66015625 C12.55360745 17.21630595 13.48850883 19.1038485 16.3125 21.6875 C22.60235089 23.8833342 29.33226959 24.5277845 35.93408203 25.15429688 C38.74957892 25.78548608 40.23088721 26.70277468 42.3125 28.6875 C43 31.875 43 31.875 42.3125 35.6875 C39.79047797 39.49720095 36.64310912 42.66220187 33.03125 45.4453125 C30.60153056 47.42159838 28.92823923 48.9917441 27.3125 51.6875 C26.75728857 57.80853469 27.81655826 63.672799 28.80859375 69.703125 C29.72926392 76.0434103 29.72926392 76.0434103 27.25 79.875 C24.3125 81.6875 24.3125 81.6875 21.62890625 81.55859375 C16.74616724 80.27608398 12.61578607 77.85701604 8.234375 75.39453125 C5.00710602 73.67619528 2.95127348 72.6801858 -0.7578125 72.72265625 C-4.24848969 73.8722526 -7.36208057 75.4765388 -10.5625 77.25 C-15.79583737 79.9916984 -19.75744213 82.03015461 -25.6875 80.6875 C-28.41946496 77.54270478 -28.6963436 75.92986255 -28.54296875 71.7265625 C-28.33825246 70.2526052 -28.11506202 68.78111469 -27.875 67.3125 C-26.57537672 59.52077211 -26.57537672 59.52077211 -26.6875 51.6875 C-28.41199654 49.46944066 -29.86643018 47.87534483 -31.9375 46.0625 C-41.37411802 37.3936908 -41.37411802 37.3936908 -42.25 32.625 C-41.6875 29.6875 -41.6875 29.6875 -39.78515625 27.56640625 C-36.1022392 25.33250574 -33.55082137 25.24007751 -29.33691406 24.92895508 C-20.68536035 24.20322774 -20.68536035 24.20322774 -13.65136719 19.56884766 C-10.221456 14.58066763 -7.71587262 9.18556439 -5.47753906 3.57348633 C-4.10993025 0.30872178 -3.86971975 0.72147317 0 0 Z " fill="#2362EB" transform="translate(47.6875,7.3125)"/>
</svg>
