<?xml version="1.0" encoding="UTF-8"?>
<svg version="1.1" xmlns="http://www.w3.org/2000/svg" width="100" height="100">
<path d="M0 0 C1.0183342 -0.01929062 2.0366684 -0.03858124 3.08586121 -0.05845642 C7.75512214 -0.11617411 12.42422737 -0.1654928 17.09375 -0.19628906 C19.55450482 -0.21785898 22.01518314 -0.25194931 24.47558594 -0.29882812 C28.02484384 -0.36584926 31.57251284 -0.39329529 35.12231445 -0.41235352 C36.76486458 -0.4540995 36.76486458 -0.4540995 38.44059753 -0.49668884 C44.75686867 -0.47974211 48.35730744 0.19272786 52.90315247 4.72276306 C55.42926247 7.83159807 55.2631693 10.26791769 55.31933594 14.19970703 C55.33862656 15.45829025 55.35791718 16.71687347 55.37779236 18.01359558 C55.39260182 19.39503959 55.40637489 20.77649503 55.41918945 22.15795898 C55.42576128 22.85347178 55.43233311 23.54898457 55.43910408 24.2655735 C55.47170419 27.94997753 55.49614862 31.63435264 55.515625 35.31884766 C55.53340936 38.36192198 55.56817892 41.40406453 55.61816406 44.44677734 C55.67852548 48.12559076 55.70912238 51.80354313 55.71879768 55.48282814 C55.72733003 56.8810611 55.74609383 58.27927243 55.77554131 59.6772213 C56.02049332 71.97175809 56.02049332 71.97175809 52.19677734 76.62207031 C49.55894601 79.20874023 49.55894601 79.20874023 47.1105957 79.20874023 C47.8859668 80.0227832 47.8859668 80.0227832 48.67700195 80.85327148 C49.33571289 81.56870117 49.99442383 82.28413086 50.6730957 83.02124023 C51.33438477 83.72893555 51.99567383 84.43663086 52.67700195 85.16577148 C53.15008789 85.83995117 53.62317383 86.51413086 54.1105957 87.20874023 C53.6155957 88.69374023 53.6155957 88.69374023 53.1105957 90.20874023 C48.54895003 89.71338195 48.54895003 89.71338195 46.53808594 87.3984375 C46.0244751 86.67712646 45.51086426 85.95581543 44.98168945 85.21264648 C40.80138093 80.83042857 37.12839986 80.35294769 31.33325195 80.11108398 C28.80786943 80.06404655 26.29156385 80.06698773 23.76611328 80.11083984 C21.17917173 80.14615728 18.60497884 80.09081317 16.01879883 80.02709961 C7.06307977 79.8323324 7.06307977 79.8323324 -0.90942383 83.32250977 C-3.28859061 85.75250711 -3.28859061 85.75250711 -5.10253906 88.375 C-5.69220459 88.98013428 -6.28187012 89.58526855 -6.8894043 90.20874023 C-9.61572266 89.98193359 -9.61572266 89.98193359 -11.8894043 89.20874023 C-10.22189281 85.26734946 -7.66229781 82.41945904 -4.8894043 79.20874023 C-5.4669043 78.98186523 -6.0444043 78.75499023 -6.6394043 78.52124023 C-9.5716377 76.81077075 -10.99306402 75.02634256 -12.8894043 72.20874023 C-13.41079712 69.22488403 -13.41079712 69.22488403 -13.4387207 65.87719727 C-13.45778473 64.61884064 -13.47684875 63.36048401 -13.49649048 62.06399536 C-13.49596753 60.69818001 -13.49409296 59.33236461 -13.4909668 57.96655273 C-13.49874844 56.55556741 -13.50741938 55.14458674 -13.51693726 53.73361206 C-13.53183603 50.77969158 -13.53129936 47.82624924 -13.52075195 44.87231445 C-13.5091736 41.10020881 -13.54300137 37.33007094 -13.5894413 33.55829048 C-13.61901488 30.64469095 -13.62064636 27.73155981 -13.61442184 24.81783676 C-13.61544368 23.42803937 -13.62583323 22.03821417 -13.64604568 20.64856339 C-13.8015523 8.46080455 -13.8015523 8.46080455 -9.96899414 3.86450195 C-6.7021751 0.72126293 -4.50628443 0.0796515 0 0 Z M5.1105957 8.20874023 C5.1105957 9.52874023 5.1105957 10.84874023 5.1105957 12.20874023 C15.6705957 12.20874023 26.2305957 12.20874023 37.1105957 12.20874023 C37.1105957 10.88874023 37.1105957 9.56874023 37.1105957 8.20874023 C26.5505957 8.20874023 15.9905957 8.20874023 5.1105957 8.20874023 Z M-8.8894043 20.20874023 C-8.8894043 28.78874023 -8.8894043 37.36874023 -8.8894043 46.20874023 C0.3505957 46.20874023 9.5905957 46.20874023 19.1105957 46.20874023 C19.1105957 37.62874023 19.1105957 29.04874023 19.1105957 20.20874023 C9.8705957 20.20874023 0.6305957 20.20874023 -8.8894043 20.20874023 Z M23.1105957 20.20874023 C23.1105957 28.78874023 23.1105957 37.36874023 23.1105957 46.20874023 C32.3505957 46.20874023 41.5905957 46.20874023 51.1105957 46.20874023 C51.1105957 37.62874023 51.1105957 29.04874023 51.1105957 20.20874023 C41.8705957 20.20874023 32.6305957 20.20874023 23.1105957 20.20874023 Z M-1.8894043 59.20874023 C-2.22273763 62.20874023 -2.22273763 62.20874023 -1.8894043 65.20874023 C-0.00440159 67.5243711 -0.00440159 67.5243711 3.1105957 67.45874023 C6.225593 67.5243711 6.225593 67.5243711 8.1105957 65.20874023 C8.44392904 62.20874023 8.44392904 62.20874023 8.1105957 59.20874023 C6.225593 56.89310937 6.225593 56.89310937 3.1105957 56.95874023 C-0.00440159 56.89310937 -0.00440159 56.89310937 -1.8894043 59.20874023 Z M34.1105957 59.20874023 C33.77726237 62.20874023 33.77726237 62.20874023 34.1105957 65.20874023 C35.99559841 67.5243711 35.99559841 67.5243711 39.1105957 67.45874023 C42.225593 67.5243711 42.225593 67.5243711 44.1105957 65.20874023 C44.44392904 62.20874023 44.44392904 62.20874023 44.1105957 59.20874023 C42.225593 56.89310937 42.225593 56.89310937 39.1105957 56.95874023 C35.99559841 56.89310937 35.99559841 56.89310937 34.1105957 59.20874023 Z " fill="#2362EB" transform="translate(29.889404296875,4.791259765625)"/>
</svg>
