<?xml version="1.0" encoding="UTF-8"?>
<svg version="1.1" xmlns="http://www.w3.org/2000/svg" width="30" height="30">
<path d="M0 0 C0 6.27 0 12.54 0 19 C-3.96 19.495 -3.96 19.495 -8 20 C-8 13.73 -8 7.46 -8 1 C-4 0 -4 0 0 0 Z " fill="#9AA2AE" transform="translate(19,5)"/>
<path d="M0 0 C6 1 6 1 7 2 C7.08631874 3.34267413 7.10706473 4.68974322 7.09765625 6.03515625 C7.09282227 7.24848633 7.09282227 7.24848633 7.08789062 8.48632812 C7.07951172 9.33646484 7.07113281 10.18660156 7.0625 11.0625 C7.05798828 11.91650391 7.05347656 12.77050781 7.04882812 13.65039062 C7.03700373 15.76695663 7.01906769 17.88348685 7 20 C4.69 19.67 2.38 19.34 0 19 C0 12.73 0 6.46 0 0 Z " fill="#9BA2AF" transform="translate(21,5)"/>
<path d="M0 0 C2.31 0.33 4.62 0.66 7 1 C7 7.27 7 13.54 7 20 C1 19 1 19 0 18 C-0.08631874 16.65732587 -0.10706473 15.31025678 -0.09765625 13.96484375 C-0.09443359 13.15595703 -0.09121094 12.34707031 -0.08789062 11.51367188 C-0.07951172 10.66353516 -0.07113281 9.81339844 -0.0625 8.9375 C-0.05798828 8.08349609 -0.05347656 7.22949219 -0.04882812 6.34960938 C-0.03700373 4.23304337 -0.01906769 2.11651315 0 0 Z " fill="#9AA2AE" transform="translate(2,5)"/>
</svg>
