<?xml version="1.0" encoding="UTF-8"?>
<svg version="1.1" xmlns="http://www.w3.org/2000/svg" width="50" height="50">
<path d="M0 0 C1.08925781 -0.00515625 2.17851562 -0.0103125 3.30078125 -0.015625 C4.42871094 -0.00015625 5.55664062 0.0153125 6.71875 0.03125 C8.41064453 0.00804688 8.41064453 0.00804688 10.13671875 -0.015625 C11.22597656 -0.01046875 12.31523437 -0.0053125 13.4375 0 C14.42685547 0.00451172 15.41621094 0.00902344 16.43554688 0.01367188 C20.12037177 0.69892001 21.71920896 1.73553354 24.21875 4.53125 C24.70530726 7.23589051 24.87668735 9.30397357 24.8125 12 C24.81254028 12.717323 24.81258057 13.434646 24.81262207 14.17370605 C24.80727291 15.68669419 24.78971533 17.19968218 24.76074219 18.71240234 C24.71888168 21.02397862 24.71967455 23.33263979 24.7265625 25.64453125 C24.71606913 27.11720768 24.70313021 28.58986913 24.6875 30.0625 C24.68729858 30.75114136 24.68709717 31.43978271 24.68688965 32.14929199 C24.58703144 36.21263644 24.0613785 38.56781922 21.21875 41.53125 C21.87875 42.19125 22.53875 42.85125 23.21875 43.53125 C23.21875 44.52125 23.21875 45.51125 23.21875 46.53125 C20.79701647 46.11370974 19.5273116 45.87330659 17.85131836 44.01538086 C14.80847213 41.24919839 10.70321134 42.06153075 6.78125 42.09375 C5.92208984 42.07376953 5.06292969 42.05378906 4.17773438 42.03320312 C-0.94376598 41.96021218 -0.94376598 41.96021218 -5.19140625 44.55859375 C-5.97837891 45.53505859 -5.97837891 45.53505859 -6.78125 46.53125 C-7.77125 46.53125 -8.76125 46.53125 -9.78125 46.53125 C-9.61625 45.933125 -9.45125 45.335 -9.28125 44.71875 C-8.6698376 42.41780664 -8.6698376 42.41780664 -8.78125 39.53125 C-9.44125 38.87125 -10.10125 38.21125 -10.78125 37.53125 C-11.0174962 35.0693952 -11.13342741 32.72333136 -11.15234375 30.2578125 C-11.16137222 29.53765961 -11.1704007 28.81750671 -11.17970276 28.07553101 C-11.19421856 26.55072189 -11.20309531 25.0258503 -11.20678711 23.50097656 C-11.21867244 21.17145273 -11.26782619 18.84458837 -11.31835938 16.515625 C-11.32782508 15.03386709 -11.33505941 13.55209292 -11.33984375 12.0703125 C-11.35937607 11.37539703 -11.37890839 10.68048157 -11.39903259 9.96450806 C-11.36572268 6.38055973 -11.02062567 4.79974437 -8.60766602 2.09326172 C-5.44799286 0.34707628 -3.58765357 0.01636064 0 0 Z M-1.78125 5.53125 C-1.78125 5.86125 -1.78125 6.19125 -1.78125 6.53125 C3.82875 6.53125 9.43875 6.53125 15.21875 6.53125 C15.21875 6.20125 15.21875 5.87125 15.21875 5.53125 C9.60875 5.53125 3.99875 5.53125 -1.78125 5.53125 Z M-7.78125 11.53125 C-7.78125 15.49125 -7.78125 19.45125 -7.78125 23.53125 C-3.49125 23.53125 0.79875 23.53125 5.21875 23.53125 C5.21875 19.57125 5.21875 15.61125 5.21875 11.53125 C0.92875 11.53125 -3.36125 11.53125 -7.78125 11.53125 Z M8.21875 11.53125 C8.21875 15.49125 8.21875 19.45125 8.21875 23.53125 C12.50875 23.53125 16.79875 23.53125 21.21875 23.53125 C21.21875 19.57125 21.21875 15.61125 21.21875 11.53125 C16.92875 11.53125 12.63875 11.53125 8.21875 11.53125 Z M-3.78125 29.53125 C-4.11125 30.85125 -4.44125 32.17125 -4.78125 33.53125 C-3.46125 33.86125 -2.14125 34.19125 -0.78125 34.53125 C-0.45125 33.21125 -0.12125 31.89125 0.21875 30.53125 C-1.10125 30.20125 -2.42125 29.87125 -3.78125 29.53125 Z M14.21875 29.53125 C13.88875 30.85125 13.55875 32.17125 13.21875 33.53125 C14.53875 33.86125 15.85875 34.19125 17.21875 34.53125 C17.54875 33.21125 17.87875 31.89125 18.21875 30.53125 C16.89875 30.20125 15.57875 29.87125 14.21875 29.53125 Z " fill="#2362EA" transform="translate(18.78125,1.46875)"/>
</svg>
